<svg xmlns="http://www.w3.org/2000/svg" viewBox="0 0 94.905 94.979">
  <defs>
    <style>
      .cls-1 {
        fill: #db3a2d;
      }
    </style>
  </defs>
  <g id="cancel-symbol-inside-a-circle" transform="translate(-0.242)">
    <path id="Path_1507" data-name="Path 1507" class="cls-1" d="M81.257,13.927A47.465,47.465,0,0,0,14.132,81.053,47.465,47.465,0,0,0,81.257,13.927ZM78.023,77.819A42.9,42.9,0,1,1,90.58,47.49,42.684,42.684,0,0,1,78.023,77.819ZM62.116,36.429,50.56,47.985,62.116,59.541a2.321,2.321,0,0,1,0,3.234A2.054,2.054,0,0,1,60.5,63.4a2.627,2.627,0,0,1-1.611-.622L47.326,51.219,35.759,62.775a2.054,2.054,0,0,1-1.611.622,2.627,2.627,0,0,1-1.611-.622,2.321,2.321,0,0,1,0-3.234L44.092,47.985,32.536,36.429a2.287,2.287,0,1,1,3.234-3.234L47.326,44.751,58.882,33.195a2.287,2.287,0,1,1,3.234,3.234Z" transform="translate(0)"/>
  </g>
</svg>
